<svg class="ldi-5z167i" width="200px"  height="200px"  xmlns="http://www.w3.org/2000/svg" xmlns:xlink="http://www.w3.org/1999/xlink" viewBox="0 0 100 100" preserveAspectRatio="xMidYMid" style="background: none;"><!--?xml version="1.0" encoding="utf-8"?--><!--Generator: Adobe Illustrator 21.0.0, SVG Export Plug-In . SVG Version: 6.00 Build 0)--><svg version="1.1" id="Layer_1" xmlns="http://www.w3.org/2000/svg" xmlns:xlink="http://www.w3.org/1999/xlink" x="0px" y="0px" viewBox="0 0 100 100" style="transform-origin: 50px 50px 0px;" xml:space="preserve"><g style="transform-origin: 50px 50px 0px;"><g style="transform-origin: 50px 50px 0px; transform: scale(0.6);"><g style="transform-origin: 50px 50px 0px; animation-duration: 1s; animation-delay: -1s; animation-direction: normal;" class=""><g><style type="text/css" class="ld ld-breath" style="transform-origin: 50px 50px 0px; animation-duration: 1.4s; animation-delay: -1.4s; animation-direction: normal;">.st0{fill:#F4E6C8;} .st1{fill:#333333;} .st2{fill:#E0E0E0;} .st3{fill:#E15C64;} .st4{fill:#C33837;} .st5{fill:#D65A62;} .st6{fill:none;} .st7{fill:#F7B26A;} .st8{fill:#F47E5F;} .st9{opacity:0.2;fill:#353035;} .st10{fill:#666766;} .st11{fill:#A0C8D7;} .st12{fill:#77A4BD;} .st13{fill:#ACBD81;} .st14{fill:#FFFFFF;} .st15{fill:#849B87;} .st16{fill:none;stroke:#E0E0E0;stroke-width:4;stroke-miterlimit:10;} .st17{fill:none;stroke:#333333;stroke-width:4;stroke-miterlimit:10;} .st18{fill:#FFFFFF;stroke:#333333;stroke-width:4;stroke-miterlimit:10;} .st19{fill:none;stroke:#000000;stroke-width:4;stroke-miterlimit:10;} .st20{fill:#FFFFFF;stroke:#000000;stroke-width:4;stroke-miterlimit:10;} .st21{fill:#010101;} .st22{fill:#A5A6A6;} .st23{fill:#666666;} .st24{fill:#F3E4C7;} .st25{fill:none;stroke:#FFFFFF;stroke-linecap:round;stroke-miterlimit:10;} .st26{fill:#353035;} .st27{fill:#B93A38;} .st28{fill:#EA7C60;} .st29{fill:#E0E0E0;stroke:#F7B26A;stroke-width:8;stroke-miterlimit:10;} .st30{fill:none;stroke:#F7B26A;stroke-width:10;stroke-linecap:round;stroke-miterlimit:10;} .st31{fill:none;stroke:#010101;stroke-width:8;stroke-miterlimit:10;} .st32{fill:#F0AF6B;stroke:#010101;stroke-width:8;stroke-miterlimit:10;} .st33{fill:#829985;} .st34{fill:#A8B980;} .st35{fill:#F0AF6B;} .st36{fill:#4A3827;} .st37{fill:#332518;} .st38{fill:#E6E6E6;}</style><g style="transform-origin: 50px 50px 0px;"><g><g class="ld ld-breath" style="transform-origin: 50px 50px 0px; animation-duration: 1.4s; animation-delay: -1.30667s; animation-direction: normal;"><path class="st34" d="M63.4,71.6c-1.2,0-2.3-0.6-2.9-1.7c-0.9-1.6-0.4-3.7,1.2-4.6c5.5-3.2,8.9-9.1,8.9-15.4s-3.4-12.2-8.9-15.4 c-1.6-0.9-2.2-3-1.2-4.6c0.9-1.6,3-2.2,4.6-1.2c7.5,4.4,12.2,12.5,12.2,21.2s-4.7,16.8-12.2,21.2C64.6,71.5,64,71.6,63.4,71.6z" fill="#9fb943" style="fill: rgb(159, 185, 67);"></path></g></g></g><g style="transform-origin: 50px 50px 0px;"><g><g class="ld ld-breath" style="transform-origin: 50px 50px 0px; animation-duration: 1.4s; animation-delay: -1.21333s; animation-direction: normal;"><path class="st35" d="M57.1,60.7c-1.2,0-2.3-0.6-2.9-1.7c-0.9-1.6-0.4-3.7,1.2-4.6C57,53.5,58,51.8,58,50s-1-3.5-2.6-4.4 c-1.6-0.9-2.2-3-1.2-4.6c0.9-1.6,3-2.2,4.6-1.2c3.6,2.1,5.9,6,5.9,10.2s-2.3,8.1-5.9,10.2C58.2,60.5,57.7,60.7,57.1,60.7z" fill="#607e37" style="fill: rgb(96, 126, 55);"></path></g></g></g><g class="ld ld-breath" style="transform-origin: 50px 50px 0px; animation-duration: 1.4s; animation-delay: -1.12s; animation-direction: normal;"><path class="st1" d="M44.2,24.3L28.7,36.6l-0.3,0.3H11.9c-1.1,0-1.9,0.9-1.9,1.9v22.3c0,1.1,0.9,1.9,1.9,1.9h16.4l0.3,0.3l15.5,12.4 c1.3,1,3.1,0.1,3.1-1.5V25.8C47.3,24.2,45.5,23.3,44.2,24.3z" fill="#b6c89f" style="fill: rgb(182, 200, 159);"></path></g><metadata xmlns:d="https://loading.io/stock/" class="ld ld-breath" style="transform-origin: 50px 50px 0px; animation-duration: 1.4s; animation-delay: -1.02667s; animation-direction: normal;">
<d:name class="ld ld-breath" style="transform-origin: 50px 50px 0px; animation-duration: 1.4s; animation-delay: -0.933333s; animation-direction: normal;">volume</d:name>
<d:tags class="ld ld-breath" style="transform-origin: 50px 50px 0px; animation-duration: 1.4s; animation-delay: -0.84s; animation-direction: normal;">sound,speaker,loud,voice,hear,listen,broadcast,volume,web application</d:tags>
<d:license class="ld ld-breath" style="transform-origin: 50px 50px 0px; animation-duration: 1.4s; animation-delay: -0.746667s; animation-direction: normal;">cc-by</d:license>
<d:slug class="ld ld-breath" style="transform-origin: 50px 50px 0px; animation-duration: 1.4s; animation-delay: -0.653333s; animation-direction: normal;">5z167i</d:slug>
</metadata></g></g></g></g><style type="text/css" class="ld ld-breath" style="transform-origin: 50px 50px 0px; animation-duration: 1.4s; animation-delay: -0.56s; animation-direction: normal;">@keyframes ld-breath {
  0% {
    -webkit-transform: scale(0.86);
    transform: scale(0.86);
  }
  50% {
    -webkit-transform: scale(1.06);
    transform: scale(1.06);
  }
  100% {
    -webkit-transform: scale(0.86);
    transform: scale(0.86);
  }
}
@-webkit-keyframes ld-breath {
  0% {
    -webkit-transform: scale(0.86);
    transform: scale(0.86);
  }
  50% {
    -webkit-transform: scale(1.06);
    transform: scale(1.06);
  }
  100% {
    -webkit-transform: scale(0.86);
    transform: scale(0.86);
  }
}
.ld.ld-breath {
  -webkit-animation: ld-breath 1s infinite;
  animation: ld-breath 1s infinite;
}
</style></svg></svg>